<svg width="226" height="226" fill="none" xmlns="http://www.w3.org/2000/svg"><path fill-rule="evenodd" clip-rule="evenodd" d="M113 226C50.592 226 0 175.408 0 113S50.592 0 113 0s113 50.592 113 113-50.592 113-113 113zm0-10c56.885 0 103-46.115 103-103S169.885 10 113 10 10 56.115 10 113s46.115 103 103 103z" fill="#EDF0F4"/><path fill-rule="evenodd" clip-rule="evenodd" d="M113 0a5 5 0 000 10c56.885 0 103 46.115 103 103s-46.115 103-103 103c-53.803 0-98.433-41.413-102.672-94.717a5 5 0 10-9.969.792C5.011 180.568 53.972 226 113 226c62.408 0 113-50.592 113-113S175.408 0 113 0z" fill="#826AF9"/><path fill-rule="evenodd" clip-rule="evenodd" d="M113 210c-53.572 0-97-43.428-97-97s43.428-97 97-97 97 43.428 97 97-43.428 97-97 97zm0-10c48.049 0 87-38.951 87-87s-38.951-87-87-87-87 38.951-87 87 38.951 87 87 87z" fill="#EDF0F4"/><path fill-rule="evenodd" clip-rule="evenodd" d="M113 16a5 5 0 000 10c48.049 0 87 38.951 87 87s-38.951 87-87 87-87-38.951-87-87c0-18.426 5.736-35.976 16.24-50.63a5 5 0 00-8.127-5.826C22.401 72.883 16 92.467 16 113c0 53.572 43.428 97 97 97s97-43.428 97-97-43.428-97-97-97z" fill="#9E86FF"/><path fill-rule="evenodd" clip-rule="evenodd" d="M113 195c-45.287 0-82-36.713-82-82s36.713-82 82-82 82 36.713 82 82-36.713 82-82 82zm0-10c39.765 0 72-32.235 72-72 0-39.764-32.235-72-72-72-39.764 0-72 32.236-72 72 0 39.765 32.236 72 72 72z" fill="#EDF0F4"/><path fill-rule="evenodd" clip-rule="evenodd" d="M113 31a5 5 0 000 10c39.765 0 72 32.236 72 72 0 39.765-32.235 72-72 72-39.764 0-72-32.235-72-72 0-25.035 12.874-47.855 33.668-60.96a5 5 0 10-5.331-8.46C45.667 58.497 31 84.494 31 113c0 45.287 36.713 82 82 82s82-36.713 82-82-36.713-82-82-82z" fill="#F7D2FF"/></svg>